<?xml version="1.0" encoding="UTF-8" standalone="no"?>
<!-- Generator: Adobe Illustrator 19.0.0, SVG Export Plug-In . SVG Version: 6.00 Build 0)  -->

<svg
   xmlns:dc="http://purl.org/dc/elements/1.1/"
   xmlns:cc="http://creativecommons.org/ns#"
   xmlns:rdf="http://www.w3.org/1999/02/22-rdf-syntax-ns#"
   xmlns:svg="http://www.w3.org/2000/svg"
   xmlns="http://www.w3.org/2000/svg"
   xmlns:sodipodi="http://sodipodi.sourceforge.net/DTD/sodipodi-0.dtd"
   xmlns:inkscape="http://www.inkscape.org/namespaces/inkscape"
   version="1.1"
   id="Capa_1"
   x="0px"
   y="0px"
   viewBox="0 0 512 512"
   style="enable-background:new 0 0 512 512;"
   xml:space="preserve"
   sodipodi:docname="params.svg"
   inkscape:version="0.92.4 (5da689c313, 2019-01-14)"><metadata
   id="metadata91"><rdf:RDF><cc:Work
       rdf:about=""><dc:format>image/svg+xml</dc:format><dc:type
         rdf:resource="http://purl.org/dc/dcmitype/StillImage" /><dc:title></dc:title></cc:Work></rdf:RDF></metadata><defs
   id="defs89" /><sodipodi:namedview
   pagecolor="#ffffff"
   bordercolor="#666666"
   borderopacity="1"
   objecttolerance="10"
   gridtolerance="10"
   guidetolerance="10"
   inkscape:pageopacity="0"
   inkscape:pageshadow="2"
   inkscape:window-width="1920"
   inkscape:window-height="1017"
   id="namedview87"
   showgrid="false"
   inkscape:zoom="0.4609375"
   inkscape:cx="-14.101695"
   inkscape:cy="256"
   inkscape:window-x="-8"
   inkscape:window-y="-8"
   inkscape:window-maximized="1"
   inkscape:current-layer="Capa_1" />
<g
   id="g6"
   style="fill:#aaaabe;fill-opacity:1">
	<g
   id="g4"
   style="fill:#aaaabe;fill-opacity:1">
		<path
   d="M256,110.825c-43.241,0-78.42,35.179-78.42,78.42c0,43.241,35.179,78.42,78.42,78.42s78.42-35.179,78.42-78.42    C334.42,146.004,299.241,110.825,256,110.825z M256,228.78c-21.802,0-39.534-17.739-39.534-39.534    c0-21.802,17.732-39.534,39.534-39.534c21.796,0,39.534,17.732,39.534,39.534S277.796,228.78,256,228.78z"
   id="path2"
   style="fill:#aaaabe;fill-opacity:1" />
	</g>
</g>
<g
   id="g12"
   style="fill:#aaaabe;fill-opacity:1">
	<g
   id="g10"
   style="fill:#aaaabe;fill-opacity:1">
		<path
   d="M256,229.428c-10.739,0-19.443,8.704-19.443,19.443v230.724c0,10.739,8.704,19.443,19.443,19.443    c10.739,0,19.443-8.704,19.443-19.443V248.871C275.443,238.132,266.739,229.428,256,229.428z"
   id="path8"
   style="fill:#aaaabe;fill-opacity:1" />
	</g>
</g>
<g
   id="g18"
   style="fill:#aaaabe;fill-opacity:1">
	<g
   id="g16"
   style="fill:#aaaabe;fill-opacity:1">
		<path
   d="M256,12.962c-10.739,0-19.443,8.704-19.443,19.443v97.863c0,10.739,8.704,19.443,19.443,19.443    c10.739,0,19.443-8.704,19.443-19.443V32.405C275.443,21.666,266.739,12.962,256,12.962z"
   id="path14"
   style="fill:#aaaabe;fill-opacity:1" />
	</g>
</g>
<g
   id="g24"
   style="fill:#aaaabe;fill-opacity:1">
	<g
   id="g22"
   style="fill:#aaaabe;fill-opacity:1">
		<path
   d="M433.58,244.334c-43.235,0-78.42,35.179-78.42,78.42c0,43.241,35.185,78.42,78.42,78.42    c43.241,0,78.42-35.179,78.42-78.42C512,279.513,476.815,244.334,433.58,244.334z M433.58,362.295    c-21.809,0-39.541-17.739-39.541-39.541s17.739-39.534,39.541-39.534s39.534,17.739,39.534,39.534    C473.114,344.563,455.375,362.295,433.58,362.295z"
   id="path20"
   style="fill:#aaaabe;fill-opacity:1" />
	</g>
</g>
<g
   id="g30"
   style="fill:#aaaabe;fill-opacity:1">
	<g
   id="g28"
   style="fill:#aaaabe;fill-opacity:1">
		<path
   d="M433.58,362.289c-10.739,0-19.443,8.704-19.443,19.443v97.863c0,10.739,8.704,19.443,19.443,19.443    c10.745,0,19.443-8.704,19.443-19.443v-97.863C453.023,370.993,444.319,362.289,433.58,362.289z"
   id="path26"
   style="fill:#aaaabe;fill-opacity:1" />
	</g>
</g>
<g
   id="g36"
   style="fill:#aaaabe;fill-opacity:1">
	<g
   id="g34"
   style="fill:#aaaabe;fill-opacity:1">
		<path
   d="M433.58,12.962c-10.739,0-19.443,8.704-19.443,19.443v230.724c0,10.739,8.704,19.443,19.443,19.443    c10.745,0,19.443-8.704,19.443-19.443V32.405C453.023,21.666,444.319,12.962,433.58,12.962z"
   id="path32"
   style="fill:#aaaabe;fill-opacity:1" />
	</g>
</g>
<g
   id="g42"
   style="fill:#aaaabe;fill-opacity:1">
	<g
   id="g40"
   style="fill:#aaaabe;fill-opacity:1">
		<path
   d="M78.42,244.334c-43.241,0-78.42,35.179-78.42,78.42c0,43.241,35.179,78.42,78.42,78.42c43.241,0,78.42-35.179,78.42-78.42    C156.841,279.513,121.662,244.334,78.42,244.334z M78.42,362.295c-21.802,0-39.534-17.739-39.534-39.541    S56.618,283.22,78.42,283.22c21.802,0,39.534,17.739,39.534,39.534C117.954,344.563,100.222,362.295,78.42,362.295z"
   id="path38"
   style="fill:#aaaabe;fill-opacity:1" />
	</g>
</g>
<g
   id="g48"
   style="fill:#aaaabe;fill-opacity:1">
	<g
   id="g46"
   style="fill:#aaaabe;fill-opacity:1">
		<path
   d="M78.42,362.289c-10.739,0-19.443,8.704-19.443,19.443v97.863c0,10.739,8.704,19.443,19.443,19.443    c10.739,0,19.443-8.704,19.443-19.443v-97.863C97.863,370.993,89.159,362.289,78.42,362.289z"
   id="path44"
   style="fill:#aaaabe;fill-opacity:1" />
	</g>
</g>
<g
   id="g54"
   style="fill:#aaaabe;fill-opacity:1">
	<g
   id="g52"
   style="fill:#aaaabe;fill-opacity:1">
		<path
   d="M78.42,12.962c-10.739,0-19.443,8.704-19.443,19.443v230.724c0,10.739,8.704,19.443,19.443,19.443    c10.739,0,19.443-8.704,19.443-19.443V32.405C97.863,21.666,89.159,12.962,78.42,12.962z"
   id="path50"
   style="fill:#aaaabe;fill-opacity:1" />
	</g>
</g>
<g
   id="g56"
   style="fill:#aaaabe;fill-opacity:1">
</g>
<g
   id="g58"
   style="fill:#aaaabe;fill-opacity:1">
</g>
<g
   id="g60"
   style="fill:#aaaabe;fill-opacity:1">
</g>
<g
   id="g62"
   style="fill:#aaaabe;fill-opacity:1">
</g>
<g
   id="g64"
   style="fill:#aaaabe;fill-opacity:1">
</g>
<g
   id="g66"
   style="fill:#aaaabe;fill-opacity:1">
</g>
<g
   id="g68"
   style="fill:#aaaabe;fill-opacity:1">
</g>
<g
   id="g70"
   style="fill:#aaaabe;fill-opacity:1">
</g>
<g
   id="g72"
   style="fill:#aaaabe;fill-opacity:1">
</g>
<g
   id="g74"
   style="fill:#aaaabe;fill-opacity:1">
</g>
<g
   id="g76"
   style="fill:#aaaabe;fill-opacity:1">
</g>
<g
   id="g78"
   style="fill:#aaaabe;fill-opacity:1">
</g>
<g
   id="g80"
   style="fill:#aaaabe;fill-opacity:1">
</g>
<g
   id="g82"
   style="fill:#aaaabe;fill-opacity:1">
</g>
<g
   id="g84"
   style="fill:#aaaabe;fill-opacity:1">
</g>
</svg>