<?xml version="1.0" encoding="UTF-8" standalone="no"?>
<!-- Generator: Adobe Illustrator 19.0.0, SVG Export Plug-In . SVG Version: 6.00 Build 0)  -->

<svg
   xmlns:dc="http://purl.org/dc/elements/1.1/"
   xmlns:cc="http://creativecommons.org/ns#"
   xmlns:rdf="http://www.w3.org/1999/02/22-rdf-syntax-ns#"
   xmlns:svg="http://www.w3.org/2000/svg"
   xmlns="http://www.w3.org/2000/svg"
   xmlns:sodipodi="http://sodipodi.sourceforge.net/DTD/sodipodi-0.dtd"
   xmlns:inkscape="http://www.inkscape.org/namespaces/inkscape"
   version="1.1"
   id="Layer_1"
   x="0px"
   y="0px"
   viewBox="0 0 512 512"
   style="enable-background:new 0 0 512 512;"
   xml:space="preserve"
   sodipodi:docname="save.svg"
   inkscape:version="0.92.4 (5da689c313, 2019-01-14)"><metadata
   id="metadata61"><rdf:RDF><cc:Work
       rdf:about=""><dc:format>image/svg+xml</dc:format><dc:type
         rdf:resource="http://purl.org/dc/dcmitype/StillImage" /><dc:title></dc:title></cc:Work></rdf:RDF></metadata><defs
   id="defs59" /><sodipodi:namedview
   pagecolor="#ffffff"
   bordercolor="#666666"
   borderopacity="1"
   objecttolerance="10"
   gridtolerance="10"
   guidetolerance="10"
   inkscape:pageopacity="0"
   inkscape:pageshadow="2"
   inkscape:window-width="1920"
   inkscape:window-height="1017"
   id="namedview57"
   showgrid="false"
   inkscape:zoom="0.4609375"
   inkscape:cx="-14.101695"
   inkscape:cy="256"
   inkscape:window-x="-8"
   inkscape:window-y="-8"
   inkscape:window-maximized="1"
   inkscape:current-layer="Layer_1" />
<g
   id="g6"
   style="fill:#181818;fill-opacity:1">
	<g
   id="g4"
   style="fill:#181818;fill-opacity:1">
		<rect
   x="139.636"
   y="372.364"
   width="232.727"
   height="46.545"
   id="rect2"
   style="fill:#181818;fill-opacity:1" />
	</g>
</g>
<g
   id="g12"
   style="fill:#181818;fill-opacity:1">
	<g
   id="g10"
   style="fill:#181818;fill-opacity:1">
		<polygon
   points="139.636,465.455 139.636,488.727 139.636,512 372.364,512 372.364,488.727 372.364,465.455   "
   id="polygon8"
   style="fill:#181818;fill-opacity:1" />
	</g>
</g>
<g
   id="g18"
   style="fill:#181818;fill-opacity:1">
	<g
   id="g16"
   style="fill:#181818;fill-opacity:1">
		<path
   d="M507.338,133.843L413.823,9.3c-4.395-5.854-11.29-9.3-18.61-9.3h-38.364v23.273v23.273v147.394    c0,12.851-10.42,23.273-23.273,23.273H116.364c-12.853,0-23.273-10.422-23.273-23.273V46.545V23.273V0H23.273    C10.42,0,0,10.422,0,23.273v465.455C0,501.578,10.42,512,23.273,512h69.818v-23.273v-23.273v-23.273v-93.091    c0-12.854,10.42-23.273,23.273-23.273h279.273c12.853,0,23.273,10.418,23.273,23.273v93.091v23.273v23.273V512h69.818    C501.58,512,512,501.578,512,488.727v-340.91C512,142.778,510.363,137.872,507.338,133.843z"
   id="path14"
   style="fill:#181818;fill-opacity:1" />
	</g>
</g>
<g
   id="g24"
   style="fill:#181818;fill-opacity:1">
	<g
   id="g22"
   style="fill:#181818;fill-opacity:1">
		<polygon
   points="139.636,0 139.636,23.273 139.636,46.545 139.636,170.667 310.303,170.667 310.303,46.545 310.303,23.273     310.303,0   "
   id="polygon20"
   style="fill:#181818;fill-opacity:1" />
	</g>
</g>
<g
   id="g26"
   style="fill:#181818;fill-opacity:1">
</g>
<g
   id="g28"
   style="fill:#181818;fill-opacity:1">
</g>
<g
   id="g30"
   style="fill:#181818;fill-opacity:1">
</g>
<g
   id="g32"
   style="fill:#181818;fill-opacity:1">
</g>
<g
   id="g34"
   style="fill:#181818;fill-opacity:1">
</g>
<g
   id="g36"
   style="fill:#181818;fill-opacity:1">
</g>
<g
   id="g38"
   style="fill:#181818;fill-opacity:1">
</g>
<g
   id="g40"
   style="fill:#181818;fill-opacity:1">
</g>
<g
   id="g42"
   style="fill:#181818;fill-opacity:1">
</g>
<g
   id="g44"
   style="fill:#181818;fill-opacity:1">
</g>
<g
   id="g46"
   style="fill:#181818;fill-opacity:1">
</g>
<g
   id="g48"
   style="fill:#181818;fill-opacity:1">
</g>
<g
   id="g50"
   style="fill:#181818;fill-opacity:1">
</g>
<g
   id="g52"
   style="fill:#181818;fill-opacity:1">
</g>
<g
   id="g54"
   style="fill:#181818;fill-opacity:1">
</g>
</svg>